#!OML:ASF E:/inclinewalkrobotboard/Project1/Captureday1/Session1/subject1.ASF
:FULLY-SPECIFIED
:DEGREES
101
root 0 0 0 1.1050510974700223 -3.7052833732542894 1.813668235591377
lowerback 11.91029262220736 0.8625144006019713 -0.028667554717634602
upperback -4.2252619498837625 1.0970298414457016 -0.5453939086040687
thorax -11.288666120392893 0.5010438430474786 -0.8073064698892307
lowerneck -5.815753498805713 1.4751555134453014 4.5679681344155405
upperneck 18.08767904685312 2.9310653527612542 -8.33263948491756
head 6.613364458703252 1.0653633567066767 -3.2226377462824196
rclavicle 1.4577612799918761E-15 -1.2113856862403447E-15
rhumerus 19.41535921530881 14.033130946061489 -48.377100668424376
rradius 71.7413126722138
rwrist 26.66559260472775
rhand -34.61559194809217 -56.25811254086943
rfingers 7.125020000000028
rthumb -7.757627417886678 -86.1892759302091
lclavicle 1.2508925781713128E-15 -1.8928396229995015E-15
lhumerus 20.742397375487133 -12.30841777171469 44.86707037181904
lradius 69.75507376175614
lwrist -22.665798549501265
lhand -44.48930492913609 -69.25575385105853
lfingers 7.12502000000002
lthumb -17.316419748990647 -39.9793735011437
rfemur -24.645069484774723 -2.097044757841474 17.181911599226755
rtibia 53.836689970206564
rfoot -29.095778666080676 -17.029454961758326
rtoes -18.318210359205114
lfemur -26.24504192670395 2.5194913631870834 -18.018305479288397
ltibia 54.199982998282245
lfoot -31.06329329172852 -3.4473300025182607
ltoes -20.1567348920451
102
root 0 0 0 1.1058135742275974 -3.704726336297051 1.8135938725109018
lowerback 11.910281256865657 0.862605285403904 -0.02878912362471303
upperback -4.225663158386087 1.0971100825817874 -0.5455139294231124
thorax -11.289110195995557 0.5010885644932045 -0.8073962728690605
lowerneck -5.818222580196893 1.4755291973132256 4.5674965523510105
upperneck 18.089049356713407 2.931483646741269 -8.331352155762646
head 6.614218478668811 1.065553927940743 -3.2221074395284974
rclavicle 1.4622738205621568E-15 -1.2193593373825202E-15
rhumerus 19.41375017463023 14.032003301424577 -48.3798837656579
rradius 71.74078549787717
rwrist 26.664405966490246
rhand -34.620067709816254 -56.26306050304909
rfingers 7.125020000000028
rthumb -7.761906216747613 -86.19415940938683
lclavicle 1.2741736590520843E-15 -1.90454091207555E-15
lhumerus 20.74141532717899 -12.307145970593897 44.86737662096033
lradius 69.7543784994982
lwrist -22.665710327582687
lhand -44.48922625143651 -69.25884201974624
lfingers 7.12502000000002
lthumb -17.316405687628787 -39.98297062734259
rfemur -24.644712035424824 -2.0973306135808487 17.182580556144554
rtibia 53.83764274613148
rfoot -29.096933091852456 -17.030532918296633
rtoes -18.318577980154732
lfemur -26.247535712246062 2.5186443846697433 -18.018583302604586
ltibia 54.20103814250076
lfoot -31.064642438379792 -3.449112492097708
ltoes -20.15123291826568
103
root 0 0 0 1.1055199243561789 -3.7049489041237074 1.8136251875411569
lowerback 11.910288611583875 0.8625711332564474 -0.028748547605823432
upperback -4.225517847711845 1.0970788828526594 -0.5454691337877211
thorax -11.288951614726885 0.5010715978990655 -0.8073604696956315
lowerneck -5.817319101178413 1.4754067223488025 4.567673969013208
upperneck 18.088569289541724 2.9313521996170655 -8.331833125001943
head 6.613912937215037 1.0654935325275572 -3.222302996019604
rclavicle 1.4484245222081717E-15 -1.2108739129802116E-15
rhumerus 19.414120439701584 14.031746176971469 -48.37728227692435
rradius 71.74062919822796
rwrist 26.66610856685518
rhand -34.61725768231275 -56.26044927686398
rfingers 7.125020000000028
rthumb -7.759241725351504 -86.19162758560616
lclavicle 1.243317656466177E-15 -1.8916819585690746E-15
lhumerus 20.742257878961542 -12.307625630237116 44.86789880306784
lradius 69.75479982872562
lwrist -22.665684479982623
lhand -44.489940246007585 -69.25921803247677
lfingers 7.12502000000002
lthumb -17.317029927168353 -39.9826862422201
rfemur -24.645066092745218 -2.0970899204239335 17.181890939090213
rtibia 53.83671957436341
rfoot -29.095737625332408 -17.029554582577177
rtoes -18.318186116313964
lfemur -26.24549032164117 2.519269287366381 -18.018321820706205
ltibia 54.20011412111164
lfoot -31.06349032614756 -3.4475158199695435
ltoes -20.155243053018136
104
root 0 0 0 1.105347394030752 -3.7050696037788655 1.8136417049824622
lowerback 11.910291810355053 0.8625501308746186 -0.028719447026027023
upperback -4.225422284925424 1.0970606508717422 -0.545441396902937
thorax -11.288846049438794 0.5010613270073316 -0.8073400896027874
lowerneck -5.8167453786421195 1.475313507259846 4.567781597785588
upperneck 18.088242584114067 2.9312454022195356 -8.33212956452985
head 6.613711872151711 1.065445038647369 -3.2224261229608437
rclavicle 1.4543248324639747E-15 -1.2116194125409388E-15
rhumerus 19.414484172923295 14.032190759159619 -48.37735751852717
rradius 71.74079737218727
rwrist 26.665892081459546
rhand -34.61675451366114 -56.25966593669246
rfingers 7.125020000000028
rthumb -7.758756086346927 -86.19079771522541
lclavicle 1.247934906340474E-15 -1.892834248181259E-15
lhumerus 20.742323386937993 -12.307957577486395 44.86751928192613
lradius 69.75490185904208
lwrist -22.66574558914071
lhand -44.48968369312298 -69.25791393167319
lfingers 7.12502000000002
lthumb -17.31678863089103 -39.981500556327546
rfemur -24.645122394725913 -2.0970645893901203 17.181883611075783
rtibia 53.83662351213915
rfoot -29.095729615842558 -17.029516907444375
rtoes -18.318153625879873
lfemur -26.245280657843225 2.519352294111422 -18.018316270357882
ltibia 54.19994866062772
lfoot -31.063368189402873 -3.447438107057029
ltoes -20.155912446284002
105
root 0 0 0 1.1051465955750492 -3.7052148077294387 1.8136595091340673
lowerback 11.910291864982316 0.862525956186897 -0.028684321528491152
upperback -4.225314331883095 1.097039782493984 -0.5454093051149139
thorax -11.288724619672447 0.5010494878287308 -0.8073174066770077
lowerneck -5.816074357625849 1.4752072053313974 4.56790788258216
upperneck 18.087862347365373 2.9311244455019745 -8.33247426395837
head 6.613477154595341 1.0653901650580277 -3.2225691213895087
rclavicle 1.4574334223088472E-15 -1.2116524501124926E-15
rhumerus 19.41515603909228 14.03291948924959 -48.37719397314149
rradius 71.74120218460838
rwrist 26.66564854927093
rhand -34.61589760539895 -56.25851848880973
rfingers 7.125020000000028
rthumb -7.757923178235231 -86.18966865004184
lclavicle 1.2506896793611758E-15 -1.8931272455259574E-15
lhumerus 20.742365422414757 -12.3083002548574 44.86718564652755
lradius 69.75502515742092
lwrist -22.6657788815323
lhand -44.48938949597843 -69.25628161793435
lfingers 7.12502000000002
lthumb -17.31650290190106 -39.97990582217885
rfemur -24.645072921601034 -2.097047689680552 17.181905719848416
rtibia 53.83667896529699
rfoot -29.095755747144736 -17.02946059216038
rtoes -18.31820654246807
lfemur -26.245113001122313 2.5194496468763674 -18.01830896542404
ltibia 54.199984962936654
lfoot -31.063309293757356 -3.447371418596666
ltoes -20.15648504442106
106
root 0 0 0 1.105877686405261 -3.7046806166906845 1.8135880365578179
lowerback 11.910280504525506 0.8626130674120488 -0.02880051860000085
upperback -4.225698714427945 1.0971167512598259 -0.5455243356238256
thorax -11.28914976947171 0.5010923568132066 -0.8074036259722079
lowerneck -5.818438792262082 1.475564387307084 4.567456026912891
upperneck 18.089173458575306 2.93152399959936 -8.331240775657037
head 6.614294600413181 1.0655722307778657 -3.222061135685841
rclavicle 1.4619155900083186E-15 -1.2193969320702406E-15
rhumerus 19.413620207341282 14.031867281677055 -48.37993510558
rradius 71.74071225083631
rwrist 26.66444382314202
rhand -34.62025304785859 -56.26330537119352
rfingers 7.125020000000028
rthumb -7.762085803236154 -86.19439732048734
lclavicle 1.2739052012587614E-15 -1.904550494521946E-15
lhumerus 20.741394262074976 -12.30706611994309 44.86745317466585
lradius 69.75434534084181
lwrist -22.665700405144946
lhand -44.489282348939696 -69.25918490758401
lfingers 7.12502000000002
lthumb -17.31646036664046 -39.983311692571704
rfemur -24.64471133083916 -2.09733006894222 17.18257793890847
rtibia 53.83763216740655
rfoot -29.096916018418902 -17.03053581566227
rtoes -18.318573206476692
lfemur -26.247578574424555 2.5186199416285024 -18.01858481940809
ltibia 54.201038680664425
lfoot -31.06465347440463 -3.4491377112643358
ltoes -20.151081006212753
107
root 0 0 0 1.1055682609247817 -3.7049144662504054 1.8136207966355147
lowerback 11.910288024073465 0.8625770048508326 -0.02875715992198047
upperback -4.2255446927283415 1.0970839115080686 -0.5454769885879436
thorax -11.288981482288111 0.5010744584193564 -0.8073660127073952
lowerneck -5.817482210059913 1.4754333087041698 4.567643410890074
upperneck 18.08866298960389 2.9313827005818567 -8.331749109290778
head 6.613970387910877 1.0655073658122087 -3.222268063438316
rclavicle 1.4481262986727603E-15 -1.2108798526771063E-15
rhumerus 19.414021810176358 14.031642738707099 -48.37731961447967
rradius 71.74057302990252
rwrist 26.66613772741162
rhand -34.61739656424014 -56.260632472942476
rfingers 7.125020000000028
rthumb -7.759376351501309 -86.19180574501509
lclavicle 1.2430867776651558E-15 -1.891659408382933E-15
lhumerus 20.742242203516053 -12.307564585022126 44.86795735785415
lradius 69.75477474876453
lwrist -22.665677320145782
lhand -44.48998324494347 -69.25947905867494
lfingers 7.12502000000002
lthumb -17.3170717687484 -39.98294491257173
rfemur -24.64506529166892 -2.0970891733842305 17.18188921247727
rtibia 53.83671095907496
rfoot -29.095724768760014 -17.02955678386705
rtoes -18.318182108611772
lfemur -26.245522275942044 2.5192512452469034 -18.018322725967284
ltibia 54.200114618674434
lfoot -31.063498865507277 -3.4475342733486736
ltoes -20.155130279569317
108
root 0 0 0 1.1053841561827653 -3.7050434069577722 1.8136383675169716
lowerback 11.910291366019726 0.8625545963120046 -0.02872599845734558
upperback -4.225442696926555 1.0970644752256582 -0.54544737079703
thorax -11.288868761054196 0.5010635025246184 -0.8073443041124857
lowerneck -5.816869425078361 1.4753337222632443 4.5677583586281765
upperneck 18.088313847131072 2.931268592447527 -8.332065672578533
head 6.613755565357206 1.0654555560796948 -3.2223995581502916
rclavicle 1.4541145561153405E-15 -1.211629031876714E-15
rhumerus 19.414409767642642 14.032112980698244 -48.3773866241161
rradius 71.74075509301271
rwrist 26.66591357451588
rhand -34.616859785757676 -56.259804459660444
rfingers 7.125020000000028
rthumb -7.758858108887345 -86.1909323091325
lclavicle 1.2477751706833638E-15 -1.8928239429048047E-15
lhumerus 20.74231122948135 -12.307911504487462 44.86756326943208
lradius 69.75488269855536
lwrist -22.66574015403244
lhand -44.48971582213555 -69.25811028755555
lfingers 7.12502000000002
lthumb -17.316819923788948 -39.981695531379486
rfemur -24.64512184602637 -2.0970640106318674 17.181882317801737
rtibia 53.8366169231995
rfoot -29.095719831849873 -17.029518582554026
rtoes -18.31815054872464
lfemur -26.24530493061145 2.519338584621104 -18.018316963922697
ltibia 54.19994895433994
lfoot -31.063374582906317 -3.447452141296733
ltoes -20.1558267252246
